# xmcd CD database file
#
# Track frame offsets:
#	150
#	5775
#	24862
#	62970
#	99937
#	105020
#	139452
#	181445
#	188175
#
# Disc length: 2756 seconds
#
# Revision: 0
# Processed by: cddbd v1.5PL3 Copyright (c) Steve Scherf et al.
# Submitted via: CDex 1.51
#
DISCID=700ac209
DTITLE=アキハバラ電脳組 - FIRST ANNIVERSARY
DYEAR=1998
DGENRE=Japanese Unclassifiable
TTITLE0=プロローグ
TTITLE1=恋しましょ ねばりましょ
TTITLE2=第1話 デンスケは捨てパタピー
TTITLE3=第2話 1たす1はピイピイ!
TTITLE4=インテルメッツオ
TTITLE5=第3話 とってこーい、こいっ!
TTITLE6=第4話 おしゃべりパタピー!
TTITLE7=エピローグ
TTITLE8=EVE-EVE MERRY CHRISTMAS
EXTD=YEAR: 1998
EXTT0=
EXTT1=
EXTT2=
EXTT3=
EXTT4=
EXTT5=
EXTT6=
EXTT7=
EXTT8=
PLAYORDER=
